<svg xmlns="http://www.w3.org/2000/svg" viewBox="0 0 300 300"><defs><style>.cls-1{fill:#141946;}.cls-2{fill:#fff;}.cls-3{fill:#7ccdef;}.cls-4{fill:red;}</style></defs><g id="Layer_1" data-name="Layer 1"><path class="cls-1" d="M149.82,5c-79.95,0-145,65.05-145,145s65.05,145,145,145,145-65.05,145-145S229.77,5,149.82,5Z"/><circle class="cls-2" cx="149.82" cy="150" r="134.55" transform="translate(-49.34 222.66) rotate(-65.08)"/><path class="cls-3" d="M218.51,213.75l22.69,16.51a121.79,121.79,0,0,0,0-160.52L218.51,86.25q-2.37-2.56-4.94-4.94l16.51-22.69a121.79,121.79,0,0,0-160.52,0L86.07,81.31q-2.56,2.37-4.94,4.94L58.44,69.74a121.79,121.79,0,0,0,0,160.52l22.69-16.51q2.37,2.56,4.94,4.94L69.56,241.38a121.79,121.79,0,0,0,160.52,0l-16.51-22.69Q216.14,216.32,218.51,213.75Zm-68.69,22.06A85.81,85.81,0,1,1,235.63,150,85.91,85.91,0,0,1,149.82,235.81Z"/><polygon class="cls-4" points="155.06 140.57 149.82 118.88 144.58 140.57 123.92 134.44 139.35 150 123.92 165.55 144.58 159.44 149.82 181.12 155.06 159.44 175.72 165.55 160.28 150 175.72 134.44 155.06 140.57"/><polygon class="cls-4" points="208.56 134.37 208.56 113.34 186.47 91.25 113.17 91.25 91.08 113.34 91.08 139.22 80.3 150 91.08 160.78 91.08 186.66 113.17 208.75 186.47 208.75 208.56 186.66 208.56 165.63 186.27 165.63 186.27 179.91 179.73 186.45 119.91 186.45 113.37 179.91 113.37 120.09 119.91 113.55 179.73 113.55 186.27 120.09 186.27 134.37 208.56 134.37"/></g></svg>
